<svg width="29" height="29" viewBox="0 0 29 29" fill="none" xmlns="http://www.w3.org/2000/svg">
<mask id="path-1-inside-1_671_353" fill="white">
<path fill-rule="evenodd" clip-rule="evenodd" d="M10.8984 3.53983H14.6329L14.7068 3.66446L17.0048 7.53885L17.6535 8.65095H13.5813L12.4465 6.70559L10.6317 3.54481C10.7202 3.5415 10.8091 3.53983 10.8984 3.53983ZM4.15625 8.65095C4.76946 6.45758 6.42421 4.69904 8.55365 3.9422L10.7138 7.70444L10.7138 7.70445L10.7173 7.71038L11.2659 8.65095H4.15625ZM3.89844 18.5398V10.651H12.4326L12.4434 10.6694L12.475 10.651H12.9779H25.8984V18.5398C25.8984 22.4058 22.7644 25.5398 18.8984 25.5398H10.8984C7.03244 25.5398 3.89844 22.4058 3.89844 18.5398ZM18.8984 3.53983C22.1099 3.53983 24.8163 5.70252 25.6406 8.65095H19.9689L19.9528 8.62327L18.7305 6.52804L18.7306 6.52802L18.7268 6.52177L16.9582 3.53983H18.8984ZM13.9737 13.4327C13.3164 13.0735 12.5122 13.5379 12.4945 14.2867L12.3727 19.4588C12.3543 20.2388 13.1967 20.7385 13.8724 20.3483L18.5343 17.6568C19.2101 17.2666 19.1985 16.2873 18.5138 15.9132L13.9737 13.4327Z"/>
</mask>
<path fill-rule="evenodd" clip-rule="evenodd" d="M10.8984 3.53983H14.6329L14.7068 3.66446L17.0048 7.53885L17.6535 8.65095H13.5813L12.4465 6.70559L10.6317 3.54481C10.7202 3.5415 10.8091 3.53983 10.8984 3.53983ZM4.15625 8.65095C4.76946 6.45758 6.42421 4.69904 8.55365 3.9422L10.7138 7.70444L10.7138 7.70445L10.7173 7.71038L11.2659 8.65095H4.15625ZM3.89844 18.5398V10.651H12.4326L12.4434 10.6694L12.475 10.651H12.9779H25.8984V18.5398C25.8984 22.4058 22.7644 25.5398 18.8984 25.5398H10.8984C7.03244 25.5398 3.89844 22.4058 3.89844 18.5398ZM18.8984 3.53983C22.1099 3.53983 24.8163 5.70252 25.6406 8.65095H19.9689L19.9528 8.62327L18.7305 6.52804L18.7306 6.52802L18.7268 6.52177L16.9582 3.53983H18.8984ZM13.9737 13.4327C13.3164 13.0735 12.5122 13.5379 12.4945 14.2867L12.3727 19.4588C12.3543 20.2388 13.1967 20.7385 13.8724 20.3483L18.5343 17.6568C19.2101 17.2666 19.1985 16.2873 18.5138 15.9132L13.9737 13.4327Z" fill="black"/>
<path d="M14.6329 3.53983L16.3531 2.51955L15.772 1.53983H14.6329V3.53983ZM14.7068 3.66446L12.9866 4.68474V4.68474L14.7068 3.66446ZM17.0048 7.53885L18.7323 6.53111L18.7287 6.52483L18.725 6.51857L17.0048 7.53885ZM17.6535 8.65095V10.651H21.1356L19.3811 7.64321L17.6535 8.65095ZM13.5813 8.65095L11.8538 9.6587L12.4326 10.651H13.5813V8.65095ZM12.4465 6.70559L10.7121 7.70147L10.719 7.71333L12.4465 6.70559ZM10.6317 3.54481L10.5568 1.54622L7.2491 1.67013L8.89728 4.54067L10.6317 3.54481ZM8.55365 3.9422L10.2881 2.94634L9.45685 1.49862L7.88386 2.05769L8.55365 3.9422ZM4.15625 8.65095L2.23011 8.11246L1.52041 10.651H4.15625V8.65095ZM10.7138 7.70444L11.7368 9.42303L13.4286 8.41599L12.4483 6.70858L10.7138 7.70444ZM10.7138 7.70445L9.69083 5.98587L7.98743 6.9998L8.98621 8.71213L10.7138 7.70445ZM10.7173 7.71038L8.98967 8.71806L8.9897 8.71812L10.7173 7.71038ZM11.2659 8.65095V10.651H14.748L12.9935 7.64321L11.2659 8.65095ZM3.89844 10.651V8.65095H1.89844V10.651H3.89844ZM12.4326 10.651L14.1602 9.64324L13.5814 8.65095H12.4326V10.651ZM12.4434 10.6694L10.7158 11.6771L11.7235 13.4047L13.4511 12.397L12.4434 10.6694ZM12.475 10.651V8.65095H11.9343L11.4672 8.9234L12.475 10.651ZM25.8984 10.651H27.8984V8.65095H25.8984V10.651ZM25.6406 8.65095V10.651H28.2765L27.5668 8.11246L25.6406 8.65095ZM19.9689 8.65095L18.2414 9.65873L18.8202 10.651H19.9689V8.65095ZM19.9528 8.62327L18.2252 9.63102L18.2252 9.63105L19.9528 8.62327ZM18.7305 6.52804L17.7228 4.80048L15.9952 5.80822L17.003 7.53578L18.7305 6.52804ZM18.7306 6.52802L19.7383 8.25558L21.4784 7.24052L20.4508 5.50781L18.7306 6.52802ZM18.7268 6.52177L20.4471 5.50156L20.447 5.5015L18.7268 6.52177ZM16.9582 3.53983V1.53983H13.4466L15.238 4.5601L16.9582 3.53983ZM12.4945 14.2867L14.494 14.3338V14.3338L12.4945 14.2867ZM13.9737 13.4327L14.9327 11.6776L14.9327 11.6776L13.9737 13.4327ZM12.3727 19.4588L10.3733 19.4117L12.3727 19.4588ZM13.8724 20.3483L12.8724 18.6163L12.8724 18.6163L13.8724 20.3483ZM18.5343 17.6568L17.5343 15.9247H17.5343L18.5343 17.6568ZM18.5138 15.9132L19.4727 14.1581L18.5138 15.9132ZM14.6329 1.53983H10.8984V5.53983H14.6329V1.53983ZM16.427 2.64419L16.3531 2.51955L12.9127 4.5601L12.9866 4.68474L16.427 2.64419ZM18.725 6.51857L16.427 2.64419L12.9866 4.68474L15.2846 8.55912L18.725 6.51857ZM19.3811 7.64321L18.7323 6.53111L15.2772 8.54659L15.9259 9.6587L19.3811 7.64321ZM13.5813 10.651H17.6535V6.65095H13.5813V10.651ZM10.719 7.71333L11.8538 9.6587L15.3089 7.64321L14.1741 5.69785L10.719 7.71333ZM8.89728 4.54067L10.7121 7.70145L14.181 5.70973L12.3661 2.54895L8.89728 4.54067ZM10.8984 1.53983C10.7842 1.53983 10.6703 1.54197 10.5568 1.54622L10.7066 5.54341C10.7701 5.54103 10.8341 5.53983 10.8984 5.53983V1.53983ZM7.88386 2.05769C5.1454 3.03099 3.01943 5.28912 2.23011 8.11246L6.08239 9.18945C6.51948 7.62604 7.70303 6.36709 9.22344 5.82671L7.88386 2.05769ZM12.4483 6.70858L10.2881 2.94634L6.81922 4.93806L8.97939 8.7003L12.4483 6.70858ZM11.7368 9.42304L11.7368 9.42303L9.69085 5.98586L9.69083 5.98587L11.7368 9.42304ZM12.4449 6.7027L12.4414 6.69677L8.98621 8.71213L8.98967 8.71806L12.4449 6.7027ZM12.9935 7.64321L12.4448 6.70264L8.9897 8.71812L9.53837 9.6587L12.9935 7.64321ZM4.15625 10.651H11.2659V6.65095H4.15625V10.651ZM1.89844 10.651V18.5398H5.89844V10.651H1.89844ZM12.4326 8.65095H3.89844V12.651H12.4326V8.65095ZM14.1709 9.66168L14.1602 9.64324L10.705 11.6587L10.7158 11.6771L14.1709 9.66168ZM11.4672 8.9234L11.4356 8.94185L13.4511 12.397L13.4827 12.3785L11.4672 8.9234ZM12.9779 8.65095H12.475V12.651H12.9779V8.65095ZM25.8984 8.65095H12.9779V12.651H25.8984V8.65095ZM27.8984 18.5398V10.651H23.8984V18.5398H27.8984ZM18.8984 27.5398C23.869 27.5398 27.8984 23.5104 27.8984 18.5398H23.8984C23.8984 21.3012 21.6599 23.5398 18.8984 23.5398V27.5398ZM10.8984 27.5398H18.8984V23.5398H10.8984V27.5398ZM1.89844 18.5398C1.89844 23.5104 5.92787 27.5398 10.8984 27.5398V23.5398C8.13701 23.5398 5.89844 21.3012 5.89844 18.5398H1.89844ZM27.5668 8.11246C26.5072 4.32259 23.0304 1.53983 18.8984 1.53983V5.53983C21.1895 5.53983 23.1254 7.08245 23.7145 9.18945L27.5668 8.11246ZM19.9689 10.651H25.6406V6.65095H19.9689V10.651ZM18.2252 9.63105L18.2414 9.65873L21.6964 7.64318L21.6803 7.6155L18.2252 9.63105ZM17.003 7.53578L18.2252 9.63102L21.6803 7.61553L20.4581 5.52029L17.003 7.53578ZM17.7228 4.80046L17.7228 4.80048L19.7383 8.25559L19.7383 8.25558L17.7228 4.80046ZM17.0066 7.54198L17.0103 7.54823L20.4508 5.50781L20.4471 5.50156L17.0066 7.54198ZM15.238 4.5601L17.0067 7.54204L20.447 5.5015L18.6784 2.51955L15.238 4.5601ZM18.8984 1.53983H16.9582V5.53983H18.8984V1.53983ZM14.494 14.3338C14.4763 15.0826 13.6721 15.5469 13.0148 15.1878L14.9327 11.6776C12.9608 10.6002 10.548 11.9932 10.4951 14.2396L14.494 14.3338ZM14.3722 19.5058L14.494 14.3338L10.4951 14.2396L10.3733 19.4117L14.3722 19.5058ZM12.8724 18.6163C13.5482 18.2261 14.3905 18.7258 14.3722 19.5058L10.3733 19.4117C10.3182 21.7519 12.8452 23.2508 14.8724 22.0804L12.8724 18.6163ZM17.5343 15.9247L12.8724 18.6163L14.8724 22.0804L19.5343 19.3888L17.5343 15.9247ZM17.5548 17.6683C16.8701 17.2942 16.8585 16.3149 17.5343 15.9247L19.5343 19.3888C21.5616 18.2184 21.527 15.2805 19.4727 14.1581L17.5548 17.6683ZM13.0148 15.1878L17.5548 17.6683L19.4727 14.1581L14.9327 11.6776L13.0148 15.1878Z" fill="black" mask="url(#path-1-inside-1_671_353)"/>
</svg>
